<svg  viewBox="0 0 91 19" fill="none" xmlns="http://www.w3.org/2000/svg">
<path d="M18.4337 9.38817C18.4337 7.6062 17.8978 5.86425 16.8939 4.38261C15.89 2.90098 14.4633 1.74621 12.7938 1.06435C11.1245 0.382477 9.28752 0.204137 7.51537 0.55188C5.74321 0.899623 4.11542 1.75782 2.83785 3.01797C1.56028 4.2781 0.690314 5.88357 0.337972 7.63133C-0.0143702 9.37909 0.166739 11.1907 0.858395 12.8369C1.55005 14.4831 2.72119 15.8901 4.2237 16.88C5.7262 17.8697 7.4926 18.3979 9.29949 18.3977C10.4992 18.3978 11.6871 18.165 12.7955 17.7122C13.9039 17.2594 14.911 16.5958 15.7593 15.7591C16.6075 14.9226 17.2802 13.9292 17.7391 12.8361C18.198 11.7429 18.4341 10.5713 18.4337 9.38817ZM9.29949 2.38916C9.90762 2.38907 10.5133 2.46559 11.1017 2.61689L9.98814 5.20278C8.15038 4.52902 6.36044 4.14363 4.86973 4.11129H4.64565C5.93383 2.99964 7.58778 2.38761 9.29949 2.38916ZM9.29949 16.3872C8.68713 16.3889 8.07714 16.3119 7.48496 16.1581L8.30478 14.2527C7.99051 14.1386 7.67533 14.0151 7.35925 13.8821C7.04226 13.7474 6.73209 13.6126 6.43012 13.4685L5.6103 15.3712C4.62328 14.7774 3.7978 13.9554 3.20524 12.9764C2.61269 11.9973 2.27089 10.8906 2.20942 9.752L2.37065 9.91505C3.61404 11.1278 5.4887 12.2948 7.65165 13.2057C9.81461 14.1166 11.9707 14.6327 13.7183 14.6704H13.9602C12.6706 15.7836 11.0133 16.3941 9.29949 16.3872ZM11.7139 8.16732C12.9641 8.81952 14.023 9.55122 14.7827 10.2937C15.6558 11.148 15.925 11.8393 15.8048 12.1182C15.6845 12.3972 14.9931 12.6869 13.7634 12.6572C12.2686 12.6236 10.3844 12.1614 8.44961 11.3515C6.51484 10.5416 4.86837 9.52697 3.8067 8.48938C2.93359 7.6337 2.66578 6.94377 2.78602 6.66484C2.90626 6.3859 3.59491 6.09618 4.82601 6.12583C6.05711 6.15548 7.597 6.48157 9.19155 7.05966L7.81152 10.26C7.80708 10.2658 7.80342 10.2722 7.80059 10.2789C8.10119 10.4217 8.41135 10.5619 8.72835 10.6953C9.04535 10.8287 9.36234 10.9499 9.67661 11.0645L11.8642 5.98704L12.9805 3.40115C13.4676 3.69309 13.9177 4.04142 14.3209 4.43874C15.5654 5.66126 16.3023 7.29805 16.3868 9.02838C16.3322 8.97179 16.2762 8.91654 16.2174 8.85725C15.2896 7.95037 14.0066 7.06909 12.5118 6.29696L11.7139 8.16732Z" fill="#71A89E"/>
<path d="M23.6299 14.572V5.76063H25.7396V7.01921C26.1113 6.16219 27.0158 5.58545 28.1499 5.58545C29.3728 5.58545 30.1994 6.09212 30.6503 7.12431C31.1641 6.09212 32.1383 5.58545 33.5744 5.58545C35.5433 5.58545 36.6774 6.93297 36.6774 9.11729V14.572H34.5499V9.41509C34.5499 8.20233 33.9651 7.4558 32.954 7.4558C31.9088 7.4558 31.1777 8.29531 31.1777 9.50134V14.572H29.0722V9.41509C29.0722 8.20233 28.4874 7.4558 27.4763 7.4558C26.4652 7.4558 25.7396 8.31282 25.7396 9.50134V14.572H23.6299Z" fill="#22322F"/>
<path d="M41.252 14.6945L37.5819 5.7605H39.7681L42.3683 12.1949L45.045 5.7605H47.2312L41.983 17.9636H39.8159L41.252 14.6945Z" fill="#22322F"/>
<path d="M48.8749 14.5721V2.38647H49.7603V7.45584C50.2395 6.23229 51.2501 5.62052 52.7923 5.62052C53.8021 5.62052 54.6 5.93584 55.2203 6.58264C55.8407 7.22945 56.1426 8.06491 56.1426 9.13484V14.5721H55.2559V9.31676C55.2559 7.56499 54.2106 6.44924 52.5969 6.44924C50.878 6.44924 49.7603 7.79676 49.7603 9.84094V14.5788L48.8749 14.5721Z" fill="#22322F"/>
<path d="M58.2346 10.1657C58.2346 8.85459 58.6773 7.75367 59.5818 6.86161C60.4863 5.96955 61.6027 5.53296 62.9321 5.53296C64.2616 5.53296 65.3615 5.9709 66.2661 6.86161C66.7101 7.2914 67.0605 7.80622 67.2955 8.37442C67.5305 8.94262 67.6452 9.55221 67.6324 10.1657C67.6462 10.78 67.5323 11.3904 67.2978 11.9596C67.0634 12.5288 66.7132 13.0446 66.2688 13.4752C65.3643 14.3659 64.2643 14.8039 62.9349 14.8039C61.6054 14.8039 60.4891 14.3659 59.5845 13.4752C58.68 12.5845 58.2346 11.4782 58.2346 10.1657ZM59.1213 10.1657C59.1213 11.2437 59.4752 12.1601 60.2021 12.8945C60.5598 13.2473 60.9866 13.5248 61.4563 13.7101C61.9261 13.8954 62.429 13.9846 62.9349 13.9725C63.4376 13.9846 63.9375 13.8951 64.404 13.7098C64.8703 13.5244 65.2934 13.2469 65.6471 12.8945C66.0066 12.5356 66.2893 12.1091 66.4783 11.6403C66.6672 11.1715 66.7587 10.6701 66.747 10.1657C66.7602 9.66402 66.6694 9.16494 66.4802 8.69901C66.2911 8.23307 66.0077 7.81008 65.6471 7.45587C65.2975 7.09654 64.8757 6.81305 64.4086 6.62349C63.9416 6.43394 63.4397 6.34248 62.9349 6.35494C62.427 6.34229 61.9218 6.43359 61.4515 6.62307C60.9812 6.81256 60.5557 7.09612 60.2021 7.45587C59.4752 8.17275 59.1213 9.08232 59.1213 10.1657Z" fill="#22322F"/>
<path d="M69.6341 5.7605H70.5195V11.1506C70.5195 12.9684 71.5661 13.948 73.3206 13.948C75.075 13.948 76.1216 12.9684 76.1216 11.1506V5.7605H77.0084V11.2328C77.0084 13.4885 75.5723 14.7646 73.3192 14.7646C71.066 14.7646 69.63 13.4885 69.63 11.2328L69.6341 5.7605Z" fill="#22322F"/>
<path d="M79.42 14.5722V5.76079H80.3054V7.52604C80.7495 6.24994 81.7593 5.62065 83.3374 5.62065C83.4792 5.61515 83.6215 5.62101 83.7624 5.63817V6.54774C83.5742 6.52447 83.3848 6.51276 83.1953 6.51271C82.2553 6.51271 81.5461 6.82668 81.0501 7.43845C80.5541 8.05022 80.3054 8.81966 80.3054 9.74675V14.5722H79.42Z" fill="#22322F"/>
<path d="M84.8268 12.5441C85.5537 13.4712 86.5634 13.9428 87.841 13.9428C89.1882 13.9428 89.9671 13.3486 89.9671 12.3865C89.9671 11.8475 89.8304 11.4782 89.3112 11.1104C89.1101 10.9408 88.89 10.7944 88.6553 10.6738C88.4791 10.5687 88.1594 10.3935 87.6811 10.1658C86.0319 9.34511 85.3405 8.78455 85.3405 7.68093C85.3405 6.3698 86.3517 5.5249 87.9284 5.5249C88.7264 5.5249 89.3823 5.73512 89.8974 6.13668V7.06377C89.3807 6.59203 88.6978 6.33772 87.994 6.35497C86.8599 6.35497 86.2177 6.84412 86.2177 7.68362C86.2177 8.33043 86.6277 8.68079 87.6893 9.22249L88.3274 9.55398C88.6458 9.71164 88.8589 9.83426 88.9477 9.88682C89.1262 9.97307 89.2978 10.0722 89.4615 10.1833C89.643 10.2716 89.8128 10.3816 89.9671 10.5107C90.1269 10.6684 90.5355 11.0174 90.6243 11.2977C90.7729 11.6383 90.851 12.0048 90.8538 12.3757C90.8538 12.9875 90.6065 13.5305 90.0914 14.0197C89.5763 14.5088 88.8507 14.754 87.841 14.754C86.5101 14.754 85.5182 14.3687 84.8268 13.5831V12.5441Z" fill="#22322F"/>
</svg>
